<svg xmlns="http://www.w3.org/2000/svg" xmlns:xlink="http://www.w3.org/1999/xlink"
    viewBox="0 0 1510 248" width="1510" height="248" preserveAspectRatio="xMidYMid meet"
    style="width: 100%; height: 100%; transform: translate3d(0px, 0px, 0px); content-visibility: visible;">
    <defs>
        <clipPath id="__lottie_element_2">
            <rect width="1510" height="248" x="0" y="0"></rect>
        </clipPath>
    </defs>
    <g clip-path="url(#__lottie_element_2)">
        <g style="display: block;"
            transform="matrix(0.7500526309013367,0,0,0.7500526309013367,19.567901611328125,29.305465698242188)"
            opacity="1">
            <path fill="rgb(0,0,0)" fill-opacity="1"
                d=" M0.25,248.0850067138672 C0.25,248.0850067138672 52.25199890136719,248.0850067138672 52.25199890136719,248.0850067138672 C52.25199890136719,248.0850067138672 52.25199890136719,0.25 52.25199890136719,0.25 C52.25199890136719,0.25 0.25,0.25 0.25,0.25 C0.25,0.25 0.25,248.0850067138672 0.25,248.0850067138672z"></path>
        </g>
        <g style="display: block;"
            transform="matrix(0.7500526309013367,0,0,0.7500526309013367,-196.12322998046875,29.305465698242188)"
            opacity="1">
            <g opacity="1" transform="matrix(1,0,0,1,417.125,124.16799926757812)">
                <path fill="rgb(0,0,0)" fill-opacity="1"
                    d=" M-24.604999542236328,123.91799926757812 C-24.604999542236328,123.91799926757812 24.604000091552734,123.91799926757812 24.604000091552734,123.91799926757812 C24.604000091552734,123.91799926757812 24.604000091552734,-123.91799926757812 24.604000091552734,-123.91799926757812 C24.604000091552734,-123.91799926757812 -24.604999542236328,-123.91799926757812 -24.604999542236328,-123.91799926757812 C-24.604999542236328,-123.91799926757812 -24.604999542236328,123.91799926757812 -24.604999542236328,123.91799926757812z"></path>
            </g>
        </g>
        <g style="display: block;"
            transform="matrix(0.7500526309013367,0,0,0.7500526309013367,651.1639404296875,29.47471809387207)"
            opacity="1">
            <g opacity="1" transform="matrix(1,0,0,1,417.125,124.16799926757812)">
                <path fill="rgb(0,0,0)" fill-opacity="1"
                    d=" M-27.143999099731445,123.91799926757812 C-27.143999099731445,123.91799926757812 24.604000091552734,123.91799926757812 24.604000091552734,123.91799926757812 C24.604000091552734,123.91799926757812 24.604000091552734,-123.91799926757812 24.604000091552734,-123.91799926757812 C24.604000091552734,-123.91799926757812 -27.143999099731445,-123.91799926757812 -27.143999099731445,-123.91799926757812 C-27.143999099731445,-123.91799926757812 -27.143999099731445,123.91799926757812 -27.143999099731445,123.91799926757812z"></path>
            </g>
        </g>
        <g style="display: block;"
            transform="matrix(0.7500526309013367,0,0,0.7500526309013367,-119.27433776855469,29.305465698242188)"
            opacity="1">
            <g opacity="1" transform="matrix(1,0,0,1,417.125,124.16799926757812)">
                <path fill="rgb(0,0,0)" fill-opacity="1"
                    d=" M-24.604999542236328,123.91799926757812 C-24.604999542236328,123.91799926757812 24.604000091552734,123.91799926757812 24.604000091552734,123.91799926757812 C24.604000091552734,123.91799926757812 24.604000091552734,-123.91799926757812 24.604000091552734,-123.91799926757812 C24.604000091552734,-123.91799926757812 -24.604999542236328,-123.91799926757812 -24.604999542236328,-123.91799926757812 C-24.604999542236328,-123.91799926757812 -24.604999542236328,123.91799926757812 -24.604999542236328,123.91799926757812z"></path>
            </g>
        </g>
        <g style="display: block;"
            transform="matrix(0.7093848586082458,0,0,0.7500526309013367,30.28484344482422,29.305465698242188)"
            opacity="1">
            <g opacity="1" transform="matrix(1,0,0,1,283.8110046386719,124.16799926757812)">
                <path fill="rgb(0,0,0)" fill-opacity="1"
                    d=" M-76.95600128173828,-123.91799926757812 C-76.95600128173828,-123.91799926757812 -76.95600128173828,123.91799926757812 -76.95600128173828,123.91799926757812 C-76.95600128173828,123.91799926757812 76.95600128173828,123.91799926757812 76.95600128173828,123.91799926757812 C76.95600128173828,123.91799926757812 76.95600128173828,82.61199951171875 76.95600128173828,82.61199951171875 C76.95600128173828,82.61199951171875 -24.95400047302246,82.61199951171875 -24.95400047302246,82.61199951171875 C-24.95400047302246,82.61199951171875 -24.95400047302246,17.70199966430664 -24.95400047302246,17.70199966430664 C-24.95400047302246,17.70199966430664 69.97599792480469,17.70199966430664 69.97599792480469,17.70199966430664 C69.97599792480469,17.70199966430664 69.97599792480469,-23.604000091552734 69.97599792480469,-23.604000091552734 C69.97599792480469,-23.604000091552734 -24.95400047302246,-23.604000091552734 -24.95400047302246,-23.604000091552734 C-24.95400047302246,-23.604000091552734 -24.95400047302246,-82.61299896240234 -24.95400047302246,-82.61299896240234 C-24.95400047302246,-82.61299896240234 76.95600128173828,-82.61299896240234 76.95600128173828,-82.61299896240234 C76.95600128173828,-82.61299896240234 76.95600128173828,-123.91799926757812 76.95600128173828,-123.91799926757812 C76.95600128173828,-123.91799926757812 -76.95600128173828,-123.91799926757812 -76.95600128173828,-123.91799926757812z"></path>
            </g>
        </g>
        <g style="display: block;"
            transform="matrix(0.7500526309013367,0,0,0.7500526309013367,16.94338035583496,29.305465698242188)"
            opacity="1">
            <g opacity="1" transform="matrix(1,0,0,1,417.125,124.16799926757812)">
                <path fill="rgb(0,0,0)" fill-opacity="1"
                    d=" M-24.604999542236328,123.91799926757812 C-24.604999542236328,123.91799926757812 24.604000091552734,123.91799926757812 24.604000091552734,123.91799926757812 C24.604000091552734,123.91799926757812 24.604000091552734,-123.91799926757812 24.604000091552734,-123.91799926757812 C24.604000091552734,-123.91799926757812 -24.604999542236328,-123.91799926757812 -24.604999542236328,-123.91799926757812 C-24.604999542236328,-123.91799926757812 -24.604999542236328,123.91799926757812 -24.604999542236328,123.91799926757812z"></path>
            </g>
        </g>
        <g style="display: block;"
            transform="matrix(0.7500526309013367,0,0,0.7500526309013367,18.312213897705078,29.305465698242188)"
            opacity="1">
            <g opacity="1" transform="matrix(1,0,0,1,556.0289916992188,155.23399353027344)">
                <path fill="rgb(0,0,0)" fill-opacity="1"
                    d=" M-84.63400268554688,-0.17399999499320984 C-84.63400268554688,-67.86000061035156 -50.779998779296875,-97.01599884033203 1.9199999570846558,-97.01599884033203 C54.619998931884766,-97.01599884033203 84.63500213623047,-68.20700073242188 84.63500213623047,0.5199999809265137 C84.63500213623047,0.5199999809265137 84.63500213623047,11.628000259399414 84.63500213623047,11.628000259399414 C84.63500213623047,11.628000259399414 -36.12200164794922,11.628000259399414 -36.12200164794922,11.628000259399414 C-34.37699890136719,51.891998291015625 -22.160999298095703,65.42900085449219 1.222000002861023,65.42900085449219 C19.7189998626709,65.42900085449219 31.23699951171875,54.66899871826172 33.33100128173828,35.92499923706055 C33.33100128173828,35.92499923706055 82.54100036621094,35.92499923706055 82.54100036621094,35.92499923706055 C79.4000015258789,76.88400268554688 45.196998596191406,97.01599884033203 1.222000002861023,97.01599884033203 C-54.61899948120117,97.01599884033203 -84.63400268554688,67.51200103759766 -84.63400268554688,-0.17399999499320984z M36.12300109863281,-20.652999877929688 C33.68000030517578,-54.66999816894531 21.81399917602539,-65.7770004272461 1.222000002861023,-65.7770004272461 C-19.368999481201172,-65.7770004272461 -32.28300094604492,-54.323001861572266 -35.77299880981445,-20.652999877929688 C-35.77299880981445,-20.652999877929688 36.12300109863281,-20.652999877929688 36.12300109863281,-20.652999877929688z"></path>
            </g>
        </g>
        <g style="display: block;"
            transform="matrix(0.7500526309013367,0,0,0.7500526309013367,18.010480880737305,29.305465698242188)"
            opacity="1">
            <g opacity="1" transform="matrix(1,0,0,1,738.9089965820312,155.23399353027344)">
                <path fill="rgb(0,0,0)" fill-opacity="1"
                    d=" M-37.518001556396484,-92.85199737548828 C-37.518001556396484,-92.85199737548828 -87.7750015258789,-92.85199737548828 -87.7750015258789,-92.85199737548828 C-87.7750015258789,-92.85199737548828 -27.04800033569336,92.85199737548828 -27.04800033569336,92.85199737548828 C-27.04800033569336,92.85199737548828 27.04800033569336,92.85199737548828 27.04800033569336,92.85199737548828 C27.04800033569336,92.85199737548828 87.7750015258789,-92.85199737548828 87.7750015258789,-92.85199737548828 C87.7750015258789,-92.85199737548828 37.518001556396484,-92.85199737548828 37.518001556396484,-92.85199737548828 C37.518001556396484,-92.85199737548828 -0.5090000033378601,47.03300094604492 -0.5090000033378601,47.03300094604492 C-0.5090000033378601,47.03300094604492 -37.518001556396484,-92.85199737548828 -37.518001556396484,-92.85199737548828z"></path>
            </g>
        </g>
        <g style="display: block;"
            transform="matrix(0.7500526309013367,0,0,0.7500526309013367,17.605056762695312,29.305465698242188)"
            opacity="1">
            <g opacity="1" transform="matrix(1,0,0,1,920.7440185546875,155.23399353027344)">
                <path fill="rgb(0,0,0)" fill-opacity="1"
                    d=" M-84.63600158691406,-0.17399999499320984 C-84.63600158691406,-67.86000061035156 -50.78300094604492,-97.01599884033203 1.9170000553131104,-97.01599884033203 C54.617000579833984,-97.01599884033203 84.63600158691406,-68.20700073242188 84.63600158691406,0.5199999809265137 C84.63600158691406,0.5199999809265137 84.63600158691406,11.628000259399414 84.63600158691406,11.628000259399414 C84.63600158691406,11.628000259399414 -36.125,11.628000259399414 -36.125,11.628000259399414 C-34.380001068115234,51.891998291015625 -22.163999557495117,65.42900085449219 1.218999981880188,65.42900085449219 C19.716999053955078,65.42900085449219 31.233999252319336,54.66899871826172 33.327999114990234,35.92499923706055 C33.327999114990234,35.92499923706055 82.53600311279297,35.92499923706055 82.53600311279297,35.92499923706055 C79.39700317382812,76.88400268554688 45.194000244140625,97.01599884033203 1.218999981880188,97.01599884033203 C-54.62200164794922,97.01599884033203 -84.63600158691406,67.51200103759766 -84.63600158691406,-0.17399999499320984z M36.119998931884766,-20.652999877929688 C33.676998138427734,-54.66999816894531 21.81100082397461,-65.7770004272461 1.218999981880188,-65.7770004272461 C-19.371999740600586,-65.7770004272461 -32.28499984741211,-54.323001861572266 -35.7760009765625,-20.652999877929688 C-35.7760009765625,-20.652999877929688 36.119998931884766,-20.652999877929688 36.119998931884766,-20.652999877929688z"></path>
            </g>
        </g>
        <g style="display: block;"
            transform="matrix(0.7500526309013367,0,0,0.7500526309013367,17.040685653686523,29.305465698242188)"
            opacity="1">
            <g opacity="1" transform="matrix(1,0,0,1,1116.3599853515625,153.1510009765625)">
                <path fill="rgb(0,0,0)" fill-opacity="1"
                    d=" M-31.40999984741211,-14.404999732971191 C-31.40999984741211,-43.5620002746582 -17.450000762939453,-59.52899932861328 4.190000057220459,-59.52899932861328 C21.989999771118164,-59.52899932861328 32.11000061035156,-48.422000885009766 32.11000061035156,-24.47100067138672 C32.11000061035156,-24.47100067138672 32.11000061035156,94.93399810791016 32.11000061035156,94.93399810791016 C32.11000061035156,94.93399810791016 81.31999969482422,94.93399810791016 81.31999969482422,94.93399810791016 C81.31999969482422,94.93399810791016 81.31999969482422,-32.108001708984375 81.31999969482422,-32.108001708984375 C81.31999969482422,-75.14900207519531 56.88999938964844,-94.93399810791016 21.290000915527344,-94.93399810791016 C-2.7899999618530273,-94.93399810791016 -22.690000534057617,-82.78500366210938 -31.40999984741211,-66.81800079345703 C-31.40999984741211,-66.81800079345703 -31.40999984741211,-90.76899719238281 -31.40999984741211,-90.76899719238281 C-31.40999984741211,-90.76899719238281 -81.31999969482422,-90.76899719238281 -81.31999969482422,-90.76899719238281 C-81.31999969482422,-90.76899719238281 -81.31999969482422,94.93399810791016 -81.31999969482422,94.93399810791016 C-81.31999969482422,94.93399810791016 -31.40999984741211,94.93399810791016 -31.40999984741211,94.93399810791016 C-31.40999984741211,94.93399810791016 -31.40999984741211,-14.404999732971191 -31.40999984741211,-14.404999732971191z"></path>
            </g>
        </g>
        <g style="display: block;"
            transform="matrix(0.5672741532325745,0,0,0.7500526309013367,250.49562072753906,29.47471809387207)"
            opacity="1">
            <g opacity="1" transform="matrix(1,0,0,1,1313.364990234375,124.16799926757812)">
                <path fill="rgb(0,0,0)" fill-opacity="1"
                    d=" M-74.86499786376953,-123.91799926757812 C-74.86499786376953,-123.91799926757812 -22.854999542236328,-123.91799926757812 -22.854999542236328,-123.91799926757812 C-22.854999542236328,-123.91799926757812 -22.854999542236328,82.61199951171875 -22.854999542236328,82.61199951171875 C-22.854999542236328,82.61199951171875 74.86499786376953,82.61199951171875 74.86499786376953,82.61199951171875 C74.86499786376953,82.61199951171875 74.86499786376953,123.91799926757812 74.86499786376953,123.91799926757812 C74.86499786376953,123.91799926757812 -74.86499786376953,123.91799926757812 -74.86499786376953,123.91799926757812 C-74.86499786376953,123.91799926757812 -74.86499786376953,-123.91799926757812 -74.86499786376953,-123.91799926757812z"></path>
            </g>
        </g>
        <g style="display: block;"
            transform="matrix(0.7500526309013367,0,0,0.7500526309013367,7.99784517288208,29.305465698242188)"
            opacity="1">
            <g opacity="1" transform="matrix(1,0,0,1,1486.9949951171875,155.23399353027344)">
                <path fill="rgb(0,0,0)" fill-opacity="1"
                    d=" M-86.55500030517578,-0.17299999296665192 C-86.55500030517578,68.55400085449219 -57.584999084472656,97.01699829101562 -12.914999961853027,97.01699829101562 C9.774999618530273,97.01699829101562 30.364999771118164,85.56199645996094 37.69499969482422,70.98400115966797 C37.69499969482422,70.98400115966797 37.69499969482422,92.85199737548828 37.69499969482422,92.85199737548828 C37.69499969482422,92.85199737548828 86.55500030517578,92.85199737548828 86.55500030517578,92.85199737548828 C86.55500030517578,92.85199737548828 86.55500030517578,-92.85099792480469 86.55500030517578,-92.85099792480469 C86.55500030517578,-92.85099792480469 36.29499816894531,-92.85099792480469 36.29499816894531,-92.85099792480469 C36.29499816894531,-92.85099792480469 36.29499816894531,-72.71900177001953 36.29499816894531,-72.71900177001953 C28.625,-85.21499633789062 9.425000190734863,-97.01599884033203 -11.515000343322754,-97.01599884033203 C-53.744998931884766,-97.01599884033203 -86.55500030517578,-70.98300170898438 -86.55500030517578,-0.17299999296665192z M1.3949999809265137,-60.56999969482422 C25.825000762939453,-60.56999969482422 39.095001220703125,-42.17300033569336 39.095001220703125,-0.17299999296665192 C39.095001220703125,41.82699966430664 25.825000762939453,60.57099914550781 1.3949999809265137,60.57099914550781 C-23.03499984741211,60.57099914550781 -36.994998931884766,41.82699966430664 -36.994998931884766,-0.17299999296665192 C-36.994998931884766,-42.17300033569336 -23.03499984741211,-60.56999969482422 1.3949999809265137,-60.56999969482422z"></path>
            </g>
        </g>
        <g style="display: block;"
            transform="matrix(0.7500526309013367,0,0,0.7500526309013367,10.073491096496582,29.305465698242188)"
            opacity="1">
            <g opacity="1" transform="matrix(1,0,0,1,1697.6199951171875,126.25)">
                <path fill="rgb(0,0,0)" fill-opacity="1"
                    d=" M-37.16999816894531,99.96700286865234 C-30.190000534057617,114.54499816894531 -11.6899995803833,126 11,126 C53.91999816894531,126 86.02999877929688,99.62000274658203 86.02999877929688,28.809999465942383 C86.02999877929688,-42 53.22999954223633,-68.03299713134766 12.039999961853027,-68.03299713134766 C-8.899999618530273,-68.03299713134766 -28.440000534057617,-56.57899856567383 -36.81999969482422,-43.736000061035156 C-36.81999969482422,-43.736000061035156 -36.81999969482422,-126 -36.81999969482422,-126 C-36.81999969482422,-126 -86.02999877929688,-126 -86.02999877929688,-126 C-86.02999877929688,-126 -86.02999877929688,121.83499908447266 -86.02999877929688,121.83499908447266 C-86.02999877929688,121.83499908447266 -37.16999816894531,121.83499908447266 -37.16999816894531,121.83499908447266 C-37.16999816894531,121.83499908447266 -37.16999816894531,99.96700286865234 -37.16999816894531,99.96700286865234z M-1.9199999570846558,-31.239999771118164 C22.510000228881836,-31.239999771118164 36.470001220703125,-13.1899995803833 36.470001220703125,28.809999465942383 C36.470001220703125,70.80999755859375 22.510000228881836,89.55400085449219 -1.9199999570846558,89.55400085449219 C-26.350000381469727,89.55400085449219 -39.61000061035156,70.80999755859375 -39.61000061035156,28.809999465942383 C-39.61000061035156,-13.1899995803833 -26.350000381469727,-31.239999771118164 -1.9199999570846558,-31.239999771118164z"></path>
            </g>
        </g>
        <g style="display: block;"
            transform="matrix(0.7500526309013367,0,0,0.7500526309013367,13.42318344116211,29.305465698242188)"
            opacity="1">
            <g opacity="1" transform="matrix(1,0,0,1,1882.074951171875,155.23399353027344)">
                <path fill="rgb(0,0,0)" fill-opacity="1"
                    d=" M-78.17500305175781,37.6609992980957 C-78.17500305175781,37.6609992980957 -28.975000381469727,37.6609992980957 -28.975000381469727,37.6609992980957 C-28.274999618530273,57.0989990234375 -17.80500030517578,66.47100067138672 0.6949999928474426,66.47100067138672 C19.19499969482422,66.47100067138672 29.665000915527344,58.13999938964844 29.665000915527344,43.56100082397461 C29.665000915527344,30.371000289916992 21.635000228881836,25.511999130249023 4.184999942779541,21.347000122070312 C4.184999942779541,21.347000122070312 -10.824999809265137,17.52899932861328 -10.824999809265137,17.52899932861328 C-53.404998779296875,6.769000053405762 -74.68499755859375,-4.684999942779541 -74.68499755859375,-39.74300003051758 C-74.68499755859375,-74.8010025024414 -41.8849983215332,-97.01599884033203 -0.004999999888241291,-97.01599884033203 C41.875,-97.01599884033203 73.63500213623047,-80.7020034790039 75.03500366210938,-42.17300033569336 C75.03500366210938,-42.17300033569336 25.825000762939453,-42.17300033569336 25.825000762939453,-42.17300033569336 C24.774999618530273,-59.180999755859375 14.305000305175781,-66.47100067138672 -0.7049999833106995,-66.47100067138672 C-15.704999923706055,-66.47100067138672 -26.174999237060547,-59.18199920654297 -26.174999237060547,-45.29800033569336 C-26.174999237060547,-32.45500183105469 -17.80500030517578,-27.59600067138672 -3.1449999809265137,-24.124000549316406 C-3.1449999809265137,-24.124000549316406 12.21500015258789,-20.30500030517578 12.21500015258789,-20.30500030517578 C52.69499969482422,-10.23900032043457 78.17500305175781,-0.17399999499320984 78.17500305175781,37.31399917602539 C78.17500305175781,74.8010025024414 44.67499923706055,97.01599884033203 -0.7049999833106995,97.01599884033203 C-49.915000915527344,97.01599884033203 -77.13500213623047,78.61900329589844 -78.17500305175781,37.6609992980957z"></path>
            </g>
        </g>
    </g>
</svg>